<?xml version="1.0" encoding="UTF-8"?>
<svg width="12px" height="12px" viewBox="0 0 12 12" version="1.1" xmlns="http://www.w3.org/2000/svg" xmlns:xlink="http://www.w3.org/1999/xlink">
    <!-- Generator: Sketch 43 (38999) - http://www.bohemiancoding.com/sketch -->
    <title>Icon - View</title>
    <desc>Created with Sketch.</desc>
    <defs></defs>
    <g id="Page-1" stroke="none" stroke-width="1" fill="none" fill-rule="evenodd">
        <g id="library-copy" transform="translate(-1151.000000, -28.000000)" fill="#585858">
            <g id="Toolbar-Button-(Pressed)" transform="translate(1134.000000, 21.000000)">
                <path d="M18.2481315,14.1818182 L20.8518685,14.1818182 C21.4089327,14.1818182 21.85,14.6306675 21.85,15.1843511 L21.85,17.906558 C21.85,18.4558201 21.4031213,18.9090909 20.8518685,18.9090909 L18.2481315,18.9090909 C17.6910673,18.9090909 17.25,18.4602416 17.25,17.906558 L17.25,15.1843511 C17.25,14.635089 17.6968787,14.1818182 18.2481315,14.1818182 Z M25.1481315,14.1818182 L27.7518685,14.1818182 C28.3089327,14.1818182 28.75,14.6306675 28.75,15.1843511 L28.75,17.906558 C28.75,18.4558201 28.3031213,18.9090909 27.7518685,18.9090909 L25.1481315,18.9090909 C24.5910673,18.9090909 24.15,18.4602416 24.15,17.906558 L24.15,15.1843511 C24.15,14.635089 24.5968787,14.1818182 25.1481315,14.1818182 Z M25.1481315,7.09090909 L27.7518685,7.09090909 C28.3089327,7.09090909 28.75,7.53975839 28.75,8.09344205 L28.75,10.8156489 C28.75,11.364911 28.3031213,11.8181818 27.7518685,11.8181818 L25.1481315,11.8181818 C24.5910673,11.8181818 24.15,11.3693325 24.15,10.8156489 L24.15,8.09344205 C24.15,7.54417987 24.5968787,7.09090909 25.1481315,7.09090909 Z M18.2481315,7.09090909 L20.8518685,7.09090909 C21.4089327,7.09090909 21.85,7.53975839 21.85,8.09344205 L21.85,10.8156489 C21.85,11.364911 21.4031213,11.8181818 20.8518685,11.8181818 L18.2481315,11.8181818 C17.6910673,11.8181818 17.25,11.3693325 17.25,10.8156489 L17.25,8.09344205 C17.25,7.54417987 17.6968787,7.09090909 18.2481315,7.09090909 Z" id="Icon---View"></path>
            </g>
        </g>
    </g>
</svg>